# xmcd CD database file
#
# Track frame offsets:
#	150
#	14891
#	21918
#	32495
#	43520
#	51392
#	64990
#	74594
#	85871
#	101549
#	110133
#	119446
#	134065
#	152422
#	164915
#	179974
#	195986
#	211831
#	228299
#	247890
#	260975
#	278291
#	288678
#	305742
#
# Disc length: 4187 seconds
#
# Revision: 0
# Processed by: cddbd v1.5.2PL0 Copyright (c) Steve Scherf et al.
# Submitted via: CDex 1.50beta9
#
DISCID=75105918
DTITLE=Gene Clark - Through the Morning, through the Night
DYEAR=1969
DGENRE=Country
TTITLE0=Gene Clark - Echoes (1967)
TTITLE1=Gene Clark - Think I`m gonna feel better (1967)
TTITLE2=Gene Clark - Tried so hard (1967)
TTITLE3=Gene Clark - Is yours is mine (1967)
TTITLE4=Gene Clark - Keep on Pushin` (1967)
TTITLE5=Gene Clark - I found you (1967)
TTITLE6=Gene Clark - So you say you lost your Baby (1967)
TTITLE7=Gene Clark - Elevator Operator (1967)
TTITLE8=Gene Clark - The same One (1967)
TTITLE9=Gene Clark - Couldn`t believe her (1967)
TTITLE10=Gene Clark - Needing Someone (1967)
TTITLE11=Dillard and Clark - No longer a Sweetheart of Mine (1969)"Through the Morning through the Night"
TTITLE12=Dillard and Clark - Through the Morning through the Night  (1969)"Through the Morning through the Night"
TTITLE13=Dillard and Clark - Rocky Top (1969)"Through the Morning through the Night"
TTITLE14=Dillard and Clark - So Sad   (1969)"Through the Morning through the Night"
TTITLE15=Dillard and Clark - Corner Street Bar (1969)"Through the Morning through the Night"
TTITLE16=Dillard and Clark - I Bowed my Head and cried Holy (1969)"Through the Morning through the Night"
TTITLE17=Dillard and Clark - Kansas City Southern (1969)"Through the Morning through the Night"
TTITLE18=Dillard and Clark - Polly (1969)"Through the Morning through the Night"
TTITLE19=Dillard and Clark -  (1969)"Through the Morning through the Night"
TTITLE20=Dillard and Clark - Don`t let me downThrough the Morning through the Night  (1969)"Through the Morning through the Night"
TTITLE21=Dillard and Clark - Four Walls (1969)"Through the Morning through the Night"
TTITLE22=Dillard and Clark - Baby`s ArmsThrough the Morning through the Night  (1969)"Through the Morning through the Night"
TTITLE23=Dillard and Clark - Don`t be cruel (1969)"Through the Morning through the Night"
EXTD=YEAR: 1969
EXTT0=
EXTT1=
EXTT2=
EXTT3=
EXTT4=
EXTT5=
EXTT6=
EXTT7=
EXTT8=
EXTT9=
EXTT10=
EXTT11=
EXTT12=
EXTT13=
EXTT14=
EXTT15=
EXTT16=
EXTT17=
EXTT18=
EXTT19=
EXTT20=
EXTT21=
EXTT22=
EXTT23=
PLAYORDER=
